# xmcd
#
# Track frame offsets: 
#        183
#        36758
#        69633
#        115608
#        149058
#        189408
#        263733
#
# Disc length: 3572 seconds
#
# Revision: 5
# Processed by: cddbd v1.5.2PL0 Copyright (c) Steve Scherf et al.
# Submitted via: ExactAudioCopy v0.95b4
#
DISCID=630df207
DTITLE=Miles Davis - Miles Davis Anthology [CD1]
DYEAR=1993
DGENRE=Jazz
TTITLE0=Round About Midnight
TTITLE1=Mascalero
TTITLE2=I Fall In Love Too Easily
TTITLE3=Riot
TTITLE4=Walkin'
TTITLE5=On Green Dolphin Street
TTITLE6=Theme
EXTD=YEAR: 1989
EXTT0=
EXTT1=
EXTT2=
EXTT3=
EXTT4=
EXTT5=
EXTT6=
PLAYORDER=
